# xmcd
#
# Track frame offsets:
# 183
# 12870
# 24508
# 38420
# 51208
# 65445
# 79083
# 93233
# 103158
# 116308
# 131533
# 143633
# 158220
# 170520
# 183933
# 198883
# 214645
# 227445
# 242845
# 258633
# 273920
# 286033
# 298008
#
# Disc length: 4122 seconds
#
#
# Revision: 0
# Processed by: cddbd v1.4PL0 Copyright (c) Steve Scherf et al.
# Submitted via: FreeRIP 2.00 
#
DISCID=34101817
DTITLE=Muddy Waters - She Moves Me
DYEAR=1992
DGENRE=Blues
TTITLE0=Little Geneva
TTITLE1=Last Time I Fool Around With You
TTITLE2=Where's My Woman Been
TTITLE3=Appealing Blues  (Hello Little Girl)
TTITLE4=Early Morning Blues  (Before Daybreak)
TTITLE5=Sad Letter Blues
TTITLE6=You're Gonna Need My Help
TTITLE7=Evans Shuffle  (Ebony Boogie)
TTITLE8=Louisiana Blues
TTITLE9=Honey Bee
TTITLE10=Long Distance Call
TTITLE11=Too Young To Know
TTITLE12=Howlin' Wolf
TTITLE13=She Moves Me
TTITLE14=Still A Fool
TTITLE15=Lonesome Day
TTITLE16=Stuff You Gotta Watch
TTITLE17=They Call Me Muddy Waters
TTITLE18=Iodine In My Coffee
TTITLE19=Standing Around Crying
TTITLE20=Flood
TTITLE21=My Life Is Ruined
TTITLE22=She's Alright
EXTD=
EXTT0=
EXTT1=
EXTT2=
EXTT3=
EXTT4=
EXTT5=
EXTT6=
EXTT7=
EXTT8=
EXTT9=
EXTT10=
EXTT11=
EXTT12=
EXTT13=
EXTT14=
EXTT15=
EXTT16=
EXTT17=
EXTT18=
EXTT19=
EXTT20=
EXTT21=
EXTT22=
PLAYORDER=
